<svg width="454" height="454" xmlns="http://www.w3.org/2000/svg" xmlns:xlink="http://www.w3.org/1999/xlink" overflow="hidden"><defs><filter id="fx0" x="-10%" y="-10%" width="120%" height="120%" filterUnits="userSpaceOnUse" primitiveUnits="userSpaceOnUse"><feComponentTransfer color-interpolation-filters="sRGB"><feFuncR type="discrete" tableValues="0 0"/><feFuncG type="discrete" tableValues="0 0"/><feFuncB type="discrete" tableValues="0 0"/><feFuncA type="linear" slope="0.431373" intercept="0"/></feComponentTransfer><feGaussianBlur stdDeviation="3.60513 3.60513"/></filter><clipPath id="clip1"><rect x="0" y="0" width="454" height="454"/></clipPath><clipPath id="clip2"><rect x="75" y="54" width="341" height="378"/></clipPath></defs><g clip-path="url(#clip1)"><rect x="0" y="0" width="454" height="454" fill="#FFFFFF"/><g clip-path="url(#clip2)" filter="url(#fx0)" transform="translate(-11 -11)"><g><path d="M165.32-20.7505C164.268-32.8146 163.32-49.0651 162.478-69.502 161.636-89.939 161.215-106.6 161.215-119.486 161.215-151.367 165.816-175.2 175.018-190.985 184.22-206.77 194.974-218.144 207.28-225.108 219.587-232.071 233.115-235.552 247.866-235.552 278.141-235.552 300.19-226.904 314.011-209.607 327.833-192.31 334.744-167.895 334.744-136.36 334.744-97.8617 320.449-65.2592 291.859-38.5527 263.269-11.8461 230.286 2.44773 192.911 4.32896 193.215 10.1722 193.367 21.4987 193.367 38.3086 193.367 59.9237 192.149 84.3226 189.712 111.505L162.127 110.383C162.127 106.39 162.964 97.2507 164.636 82.9645 166.308 68.6784 167.144 57.7693 167.144 50.2373L166.916 21.4702C166.916 16.6769 166.863 10.9881 166.756 4.40378 127.046 2.95485 93.5441-7.23571 66.2509-26.1679 38.9576-45.1001 25.311-75.7502 25.311-118.118 25.311-148.65 32.8769-174.057 48.0087-194.34 63.1404-214.622 89.2929-228.816 126.466-236.92L132.712-212.443C106.705-208.274 87.1296-198.505 73.986-183.134 60.8423-167.764 54.2705-149.056 54.2705-127.011 54.2705-92.1991 62.9771-66.7366 80.3903-50.6239 97.8035-34.5111 126.113-24.5533 165.32-20.7505ZM305.785-136.816C305.785-161.201 300.521-179.611 289.994-192.045 279.466-204.48 264.664-210.697 245.585-210.697 226.353-210.697 211.967-203.384 202.429-188.759 192.892-174.133 188.123-150.586 188.123-118.118 188.123-100.897 188.488-83.4883 189.218-65.891 189.949-48.2937 190.872-33.2469 191.988-20.7505 222.549-22.4726 249.155-32.9428 271.807-52.1613 294.459-71.3797 305.785-99.5981 305.785-136.816Z" fill="#2F5597" transform="matrix(1 0 0 1 66.2776 306)"/></g></g><text fill="#2F5597" font-family="Candara Light,Candara Light_MSFontService,sans-serif" font-weight="700" font-size="467" transform="matrix(1 0 0 1 47.6299 287)">φ</text></g></svg>